<?xml version="1.0" standalone="no"?>
<!DOCTYPE svg PUBLIC "-//W3C//DTD SVG 20010904//EN"
 "http://www.w3.org/TR/2001/REC-SVG-20010904/DTD/svg10.dtd">
<svg version="1.0" xmlns="http://www.w3.org/2000/svg"
 width="716.000000pt" height="800.000000pt" viewBox="0 0 716.000000 800.000000"
 preserveAspectRatio="xMidYMid meet">

<g transform="translate(0.000000,800.000000) scale(0.100000,-0.100000)"
fill="#000000" stroke="none">
<path d="M2840 7634 c-343 -70 -641 -280 -711 -502 -20 -66 -40 -292 -25 -292
4 0 75 34 158 75 139 69 168 78 168 55 0 -4 -60 -37 -133 -73 -362 -175 -641
-442 -810 -775 -95 -185 -130 -317 -129 -487 0 -258 134 -439 390 -525 195
-65 635 -80 772 -26 10 4 24 -8 43 -38 15 -24 66 -85 113 -135 l86 -91 -70 0
c-100 0 -127 -8 -175 -51 -54 -47 -172 -223 -163 -244 3 -9 16 -19 28 -24 21
-7 15 -12 -47 -41 -113 -51 -269 -114 -435 -175 -326 -119 -446 -175 -588
-275 -271 -190 -399 -436 -616 -1183 -105 -359 -201 -754 -221 -904 -4 -29
-11 -55 -16 -59 -5 -3 -9 -21 -9 -40 0 -47 34 -80 91 -89 l44 -7 0 -291 c1
-269 3 -298 23 -371 60 -215 194 -390 344 -448 65 -26 230 -28 323 -5 33 9 61
14 62 13 2 -2 -1 -26 -7 -54 -11 -58 0 -102 24 -102 25 0 36 34 36 107 l0 69
83 34 c112 45 214 96 864 436 310 162 573 294 585 294 27 0 88 35 88 50 0 5
37 28 83 51 l82 42 65 -23 c36 -13 133 -52 215 -87 326 -141 392 -157 605
-149 80 3 193 11 252 18 60 6 110 9 114 6 3 -3 1 -41 -5 -83 -16 -110 -13
-420 4 -555 30 -237 43 -283 79 -278 19 3 21 10 21 64 l0 61 68 11 c92 16 178
57 267 129 98 79 125 108 150 165 27 62 44 242 38 420 l-4 138 30 5 c17 3 276
32 576 65 300 34 571 67 604 75 140 36 185 109 230 372 149 867 270 1628 262
1649 -6 15 -22 16 -179 10 -349 -14 -715 -45 -1087 -92 -186 -23 -497 -70
-531 -80 -19 -5 -68 96 -124 256 -62 176 -101 246 -185 331 -85 86 -166 131
-387 213 -68 25 -137 53 -154 61 -17 9 -35 15 -41 13 -15 -5 93 -73 242 -153
206 -110 284 -175 354 -297 15 -25 61 -131 102 -235 42 -103 78 -194 81 -200
3 -8 -3 -13 -15 -13 -44 0 -230 -42 -270 -62 -77 -37 -89 -59 -187 -372 -99
-315 -231 -818 -286 -1089 l-24 -118 -35 7 c-19 5 -51 8 -71 9 -24 0 -47 10
-70 29 -44 38 -99 62 -196 86 -87 22 -168 26 -179 8 -12 -18 22 -35 87 -42 84
-8 196 -42 241 -73 40 -27 72 -82 62 -107 -12 -33 -50 -29 -141 13 -112 51
-168 71 -203 71 -15 0 -74 -24 -131 -52 -91 -46 -111 -53 -164 -53 -54 0 -73
-7 -198 -70 -133 -68 -138 -69 -165 -55 -62 35 -128 236 -120 364 2 36 6 68 9
71 3 3 91 27 195 55 247 64 232 59 239 81 4 11 24 24 53 33 26 8 152 46 281
86 129 40 250 73 268 73 21 1 41 -7 56 -21 13 -12 28 -22 33 -22 5 0 39 -29
74 -65 65 -66 100 -82 100 -46 0 12 -26 42 -62 73 -33 29 -75 68 -93 86 -43
44 -86 55 -155 41 -69 -14 -407 -130 -515 -176 -44 -19 -143 -52 -219 -73
-118 -33 -141 -37 -150 -25 -11 15 -32 19 -73 17 -13 -1 -41 -20 -62 -41 -39
-39 -45 -41 -343 -120 -411 -109 -545 -145 -666 -179 -56 -16 -102 -28 -102
-27 0 1 6 40 14 86 34 198 49 370 50 589 1 226 -5 285 -27 277 -6 -2 -19 -27
-27 -55 l-16 -52 -42 60 c-24 33 -48 60 -53 60 -6 0 -9 -6 -6 -12 75 -173 89
-235 72 -318 -19 -98 -60 -569 -53 -625 3 -28 0 -35 -17 -37 -13 -2 -24 5 -31
22 -10 22 -32 33 -140 68 -132 43 -331 91 -464 112 -41 7 -123 20 -181 31 -58
10 -118 19 -133 19 -23 0 -27 3 -21 18 3 9 24 94 46 187 114 485 275 1035 384
1310 98 246 236 429 412 544 110 73 222 125 502 236 261 103 386 162 465 218
l49 35 60 -81 c110 -148 166 -243 260 -439 90 -186 128 -247 167 -268 24 -13
48 -3 56 23 8 25 73 115 213 296 l96 123 3 -45 c2 -25 -4 -72 -12 -105 -35
-133 -17 -191 86 -278 107 -91 167 -193 183 -312 12 -89 55 -82 55 9 0 68 -25
140 -75 214 -43 64 -43 67 -26 84 10 10 26 42 36 71 13 40 37 73 99 139 92 97
121 141 166 256 18 44 39 88 47 97 18 20 15 41 -21 162 -39 131 -41 125 67
179 50 25 119 68 153 96 195 159 327 491 379 956 21 190 20 188 71 233 59 54
61 93 7 124 -32 20 -34 23 -18 32 155 92 274 195 367 320 252 339 216 679 -94
893 -210 145 -421 209 -719 220 -179 6 -325 -5 -499 -38 l-104 -21 -20 29
c-86 120 -260 201 -446 208 -52 2 -106 1 -120 -1z m1308 -1040 c29 -6 33 -12
61 -103 29 -88 81 -300 81 -328 0 -8 -9 -9 -32 -2 -18 5 -49 9 -69 9 -20 0
-56 9 -80 20 -62 28 -157 27 -193 -1 -35 -27 -29 -44 16 -45 44 -1 88 -12 88
-22 0 -4 -16 -18 -35 -31 -19 -13 -53 -50 -75 -83 l-39 -59 -108 -3 c-61 -1
-118 -7 -130 -14 -20 -11 -24 -9 -39 20 -23 46 -72 96 -117 119 -37 19 -37 20
-21 45 13 19 14 30 6 48 -17 38 -58 46 -132 26 -110 -29 -136 -45 -247 -156
-60 -59 -130 -125 -158 -147 l-50 -40 -154 6 c-84 3 -155 8 -158 11 -2 2 -11
39 -18 82 l-14 79 52 53 c260 266 654 450 1097 511 75 10 423 14 468 5z m128
-533 c36 -22 38 -34 50 -223 6 -103 5 -108 -22 -158 -48 -88 -145 -128 -225
-93 -61 27 -139 123 -139 170 0 16 84 44 136 46 43 2 57 -2 77 -21 20 -19 29
-22 45 -13 11 6 22 18 26 27 8 21 -46 74 -76 74 -17 0 -27 8 -35 29 -22 58
-101 80 -104 28 -2 -31 -2 -30 5 -52 4 -16 -3 -25 -34 -42 l-40 -21 6 26 c13
53 77 162 116 198 l40 36 27 -26 c15 -14 37 -26 48 -26 25 0 53 25 53 46 0 19
9 18 46 -5z m-829 -70 c47 -22 89 -77 99 -131 6 -30 5 -33 -7 -23 -8 7 -34 15
-56 19 -33 5 -43 11 -47 30 -9 36 -42 64 -75 64 -36 0 -52 -19 -59 -73 -5 -41
-7 -43 -85 -82 -78 -39 -109 -66 -94 -81 4 -5 45 4 90 19 120 38 187 47 259
32 34 -7 67 -11 74 -8 16 6 1 -64 -25 -115 -73 -141 -288 -180 -410 -76 -49
43 -73 92 -73 157 -1 82 18 133 65 178 40 39 114 84 167 100 47 14 134 9 177
-10z m378 -153 c14 -6 28 -23 31 -37 3 -14 10 -39 15 -55 14 -43 13 -44 -38
-43 -37 2 -48 -2 -51 -15 -2 -11 7 -20 30 -27 73 -24 117 -94 83 -131 -24 -26
-79 -26 -150 1 -64 24 -88 15 -83 -30 4 -35 70 -60 165 -60 67 -1 75 1 107 29
19 17 37 44 41 59 l6 29 42 -23 c85 -47 186 -39 264 21 l36 27 -6 -80 c-8
-104 -39 -258 -73 -359 -95 -284 -271 -476 -496 -541 -99 -28 -181 -29 -277
-3 -92 26 -141 50 -214 107 -32 25 -61 43 -64 39 -9 -9 47 -84 95 -127 91 -79
201 -114 343 -107 l87 4 7 -45 c10 -73 36 -174 52 -201 14 -24 11 -31 -44
-130 -47 -84 -76 -123 -149 -195 -98 -96 -135 -155 -138 -216 l-1 -38 -25 22
c-111 96 -121 116 -95 207 37 132 39 158 21 216 -22 71 -83 131 -211 209 -120
73 -230 153 -308 224 l-57 53 25 30 c14 17 33 44 41 60 13 26 18 28 50 22 21
-4 40 -2 49 6 29 24 16 49 -47 97 -98 74 -247 229 -321 334 -95 135 -95 135
-161 120 -42 -9 -65 -9 -97 -1 -176 48 -204 376 -39 460 61 31 112 26 181 -16
44 -27 65 -35 84 -30 27 7 48 45 39 70 -5 13 16 14 143 9 145 -6 149 -7 181
-34 18 -16 41 -29 52 -29 14 0 21 -10 26 -37 41 -225 320 -317 529 -173 67 46
125 141 125 206 0 29 64 102 105 120 38 17 57 17 90 2z m-1075 -1055 c-1 -10
-6 -42 -13 -71 l-12 -52 -58 58 c-31 32 -57 61 -57 64 0 7 42 13 108 16 25 2
32 -2 32 -15z m26 -253 c91 -87 179 -152 339 -253 50 -30 105 -71 124 -91 l33
-34 -35 -32 c-47 -41 -189 -205 -262 -303 l-58 -78 -24 36 c-14 20 -58 106
-100 192 -85 175 -159 291 -260 407 -37 43 -81 93 -96 112 l-28 33 47 88 c27
48 63 104 82 125 l34 38 58 -77 c31 -43 97 -116 146 -163z m3904 -1036 c0 -8
-32 -191 -70 -405 -39 -214 -79 -442 -89 -507 -31 -184 -111 -650 -126 -729
-18 -96 -44 -151 -87 -189 -42 -37 -60 -40 -468 -84 -481 -53 -849 -94 -1070
-120 -47 -5 -186 -21 -310 -36 -123 -14 -270 -33 -327 -43 -70 -12 -103 -14
-103 -7 0 6 9 45 20 86 11 41 47 192 80 335 64 278 120 510 150 615 83 296
107 381 140 490 78 254 91 291 119 323 36 40 66 51 211 76 63 11 156 27 205
36 452 80 1135 153 1575 168 41 2 92 4 113 5 28 2 37 -2 37 -14z m-3990 -1664
c0 -143 43 -295 103 -366 l27 -32 -527 -273 c-916 -474 -925 -478 -1112 -502
-169 -21 -274 17 -371 134 -97 114 -148 237 -175 420 -19 127 -33 629 -17 629
6 0 22 -4 35 -9 13 -5 82 -21 153 -36 212 -43 615 -158 601 -171 -2 -2 -44
-16 -93 -30 -115 -33 -205 -75 -271 -125 -66 -50 -70 -71 -4 -24 94 68 124 77
636 204 176 44 345 86 375 94 30 8 152 41 270 72 118 31 242 65 275 75 98 30
95 32 95 -60z m-2100 8 c0 -5 0 -26 0 -48 0 -22 -4 -40 -9 -40 -16 0 -76 46
-79 61 -1 9 7 21 20 27 25 12 69 12 68 0z m3405 -135 c28 -10 52 -18 53 -19 4
-3 -27 -272 -34 -296 -12 -40 -186 -7 -414 77 -182 67 -305 105 -336 105 -50
0 -30 18 26 23 39 3 88 19 148 46 49 23 104 41 122 41 19 0 77 -20 134 -47
114 -53 191 -67 219 -38 24 23 32 64 19 97 -12 34 -7 35 63 11z m1001 -338
c-14 -38 -65 -279 -76 -360 -17 -127 -31 -155 -115 -233 -112 -105 -243 -164
-286 -130 -10 9 -20 44 -28 103 -14 109 -26 556 -14 571 7 10 394 59 487 63
30 1 37 -2 32 -14z"/>
<path d="M2304 5646 c-15 -12 -17 -18 -8 -33 6 -10 20 -19 30 -21 61 -11 98
-27 145 -62 50 -37 76 -43 65 -15 -2 7 0 17 5 22 16 16 -77 91 -134 108 -63
19 -78 19 -103 1z"/>
<path d="M3882 5313 c-8 -3 -22 -25 -32 -48 -36 -83 -91 -94 -151 -30 -35 37
-63 45 -72 21 -15 -39 27 -108 83 -136 75 -38 151 -20 215 51 43 48 49 108 13
133 -23 17 -34 18 -56 9z"/>
<path d="M5580 2714 c0 -54 -27 -100 -80 -138 -53 -38 -67 -65 -51 -95 9 -17
6 -23 -23 -40 -47 -29 -62 -70 -42 -109 28 -53 78 -76 181 -80 154 -7 242 22
293 98 16 24 21 42 17 60 -8 32 -41 67 -70 74 -15 4 -24 16 -28 36 -5 21 -16
35 -41 46 -25 12 -36 25 -40 48 -9 44 -74 136 -97 136 -15 0 -19 -7 -19 -36z
m69 -156 c1 -32 14 -42 39 -29 24 13 52 -4 52 -32 0 -11 -14 -35 -31 -53 -31
-32 -32 -54 -3 -54 8 0 27 12 41 26 22 22 31 25 52 18 42 -15 40 -55 -4 -91
-49 -40 -96 -53 -198 -53 -154 0 -216 52 -152 129 19 21 36 31 63 33 l37 3
-32 18 c-18 10 -33 21 -33 26 0 5 22 25 50 45 29 21 59 53 72 78 l22 43 12
-40 c7 -22 13 -52 13 -67z"/>
<path d="M3886 4412 c40 -37 74 -74 77 -84 3 -9 2 -46 -4 -82 -10 -71 -50
-145 -120 -221 -47 -51 -69 -101 -69 -155 0 -22 -4 -40 -8 -40 -4 0 -23 11
-42 25 -47 35 -73 32 -108 -12 -27 -35 -62 -95 -62 -107 0 -3 21 17 46 44 26
28 51 50 57 50 5 0 36 -23 68 -51 41 -35 65 -49 81 -47 22 3 23 8 28 100 5 91
7 98 38 135 18 21 51 64 74 96 23 31 48 57 55 57 16 0 27 58 27 157 1 77 -1
83 -29 113 -31 32 -137 90 -164 90 -9 -1 13 -29 55 -68z"/>
<path d="M3145 3779 c14 -43 56 -127 69 -139 8 -6 38 -20 67 -30 29 -11 57
-27 62 -35 11 -20 37 -19 37 1 0 33 -22 53 -72 68 -71 21 -93 38 -129 102 -32
56 -45 69 -34 33z"/>
<path d="M1761 3735 c-1 -10 17 -127 39 -260 21 -132 48 -301 60 -375 27 -179
40 -260 46 -287 4 -23 28 -31 39 -13 11 17 -14 295 -40 441 -13 79 -41 205
-60 279 -36 134 -83 254 -84 215z"/>
<path d="M2144 3425 c4 -121 9 -262 12 -313 6 -87 8 -93 28 -90 17 3 23 14 33
73 24 141 11 301 -38 460 -37 123 -42 106 -35 -130z"/>
<path d="M3685 2133 c-167 -28 -293 -68 -274 -87 3 -3 52 3 109 14 136 26 305
43 351 35 21 -4 63 -24 93 -46 117 -84 177 -84 89 -1 -103 96 -186 116 -368
85z"/>
<path d="M3660 1948 c-80 -16 -149 -34 -155 -40 -11 -11 12 -9 217 19 64 8
127 13 141 9 13 -3 47 -26 74 -51 53 -47 87 -64 116 -57 26 5 21 29 -9 36 -14
4 -47 26 -72 50 -85 78 -94 79 -312 34z"/>
<path d="M3094 1322 c-42 -51 -259 -377 -323 -486 -52 -88 -60 -121 -30 -121
33 0 163 182 278 387 59 106 121 235 121 253 0 14 -18 1 -46 -33z"/>
</g>
</svg>
